<svg fill="#000000" xmlns="http://www.w3.org/2000/svg"  viewBox="0 0 50 50" width="50px" height="50px"><path d="M 6 5 A 1.0001 1.0001 0 0 0 5 6 L 5 44 A 1.0001 1.0001 0 0 0 6 45 L 34.5 45 L 35.5 45.042969 C 35.5 45.042969 35.501942 45.000254 35.501953 45 L 37.443359 45 L 44 45 A 1.0001 1.0001 0 0 0 45 44 L 45 6 A 1.0001 1.0001 0 0 0 44 5 L 6 5 z M 7 7 L 43 7 L 43 43 L 40.320312 43 C 40.929414 41.99682 41.44557 40.531475 41.712891 38.363281 L 41.712891 38.361328 C 41.982298 36.176601 41.927056 33.012345 41.6875 30.197266 C 41.567693 28.789389 41.400133 27.477791 41.191406 26.419922 C 41.087043 25.890987 40.973383 25.426244 40.837891 25.025391 C 40.702399 24.624537 40.593474 24.29074 40.238281 23.935547 C 39.761595 23.45886 39.206582 23.258521 38.613281 23.076172 C 38.01998 22.893823 37.382284 22.768787 36.783203 22.675781 C 36.32372 22.604448 35.940303 22.568195 35.574219 22.53125 C 35.424056 21.454249 35.247034 20.375272 35.009766 19.335938 C 34.333515 16.373676 33.442249 13.715767 31.546875 12.474609 C 30.378955 11.709982 28.778469 11.297651 27.035156 11.105469 C 25.291843 10.913286 23.420192 10.967947 21.775391 11.345703 C 17.581805 12.309518 16.105606 14.026822 14.449219 16.052734 C 14.079042 16.505522 13.77863 17.066448 13.496094 17.673828 C 13.045348 17.830006 12.603965 18.018372 12.181641 18.251953 C 10.383605 19.246417 9.0011201 21.15986 9 23.943359 C 8.9992296 25.719514 9.8452053 26.96624 11 27.845703 L 11 37.078125 C 11 39.577485 11.246952 41.588657 11.501953 43 L 7 43 L 7 7 z M 25.638672 13.009766 C 26.035486 13.023182 26.431297 13.051296 26.816406 13.09375 C 28.356843 13.263568 29.756045 13.692065 30.453125 14.148438 C 31.318751 14.715279 32.427048 17.006261 33.060547 19.78125 C 33.694046 22.556239 34 25.77198 34 28.164062 C 34 32.319767 33.682154 40.336802 33.574219 43 L 13.542969 43 C 13.284484 41.694149 13 39.695988 13 37.078125 L 13 28.945312 C 15.155718 29.806733 17.389953 29.920935 17.455078 29.933594 C 17.992762 30.042552 18.585869 30.027324 19.548828 29.958984 C 20.511787 29.890644 21.698552 29.727909 22.892578 29.380859 C 24.086604 29.033809 25.295647 28.507254 26.269531 27.640625 C 27.243415 26.773996 27.952247 25.511657 27.994141 23.970703 C 28.038361 22.33708 27.809455 21.02795 27.271484 19.980469 C 26.733514 18.932988 25.87078 18.19757 24.888672 17.759766 C 22.924456 16.884157 20.533202 16.986265 17.943359 17.011719 C 17.372776 17.017423 16.770843 17.058155 16.162109 17.121094 C 17.710354 15.217459 18.524787 14.145254 22.224609 13.294922 C 23.241009 13.061489 24.44823 12.969517 25.638672 13.009766 z M 19.832031 19.009766 C 21.610999 19.031853 23.099274 19.151298 24.074219 19.585938 C 24.724361 19.875757 25.16122 20.250106 25.492188 20.894531 C 25.823155 21.538957 26.034377 22.501638 25.996094 23.916016 C 25.968984 24.913062 25.588069 25.569301 24.939453 26.146484 C 24.290837 26.723668 23.344459 27.167238 22.333984 27.460938 C 21.32351 27.754637 20.258291 27.904373 19.40625 27.964844 C 18.554209 28.025314 17.769832 27.955756 17.853516 27.972656 L 17.851562 27.972656 C 16.156465 27.631035 10.998424 27.572177 11 23.945312 C 11.00088 21.758813 11.845222 20.722739 13.148438 20.001953 C 14.451156 19.281441 16.296995 19.028552 17.962891 19.011719 L 17.964844 19.011719 C 18.614401 19.005341 19.239042 19.002403 19.832031 19.009766 z M 35.8125 24.572266 C 36.04053 24.59944 36.226002 24.613444 36.476562 24.652344 C 37.015982 24.736084 37.57927 24.850568 38.027344 24.988281 C 38.446285 25.117041 38.735141 25.289662 38.792969 25.332031 C 38.806746 25.363901 38.881544 25.483136 38.943359 25.666016 C 39.035199 25.937725 39.135176 26.333575 39.228516 26.806641 C 39.415195 27.752771 39.578041 29.012063 39.693359 30.367188 C 39.923995 33.077433 39.961939 36.209968 39.726562 38.117188 C 39.383956 40.898489 38.632505 42.101863 38.126953 42.599609 C 37.874177 42.848482 37.67841 42.936257 37.564453 42.974609 C 37.450499 43.012962 37.511719 43 37.511719 43 L 35.578125 43 C 35.689157 40.263362 36 32.400562 36 28.164062 C 36 27.078148 35.929278 25.844091 35.8125 24.572266 z"/></svg>